<svg width="140" height="35" viewBox="0 0 140 35" fill="none" xmlns="http://www.w3.org/2000/svg">
<path d="M2.10265 0.014771C2.46527 -0.0440742 2.83407 0.0749834 3.09384 0.334749L4.57143 1.81234L6.04902 0.334749C6.49533 -0.111565 7.21895 -0.111565 7.66527 0.334749L9.14286 1.81234L10.6205 0.334749C11.0668 -0.111565 11.7904 -0.111565 12.2367 0.334749L13.7143 1.81234L15.1919 0.334749C15.6382 -0.111565 16.3618 -0.111565 16.8081 0.334749L18.2857 1.81234L19.7633 0.334749C20.2096 -0.111565 20.9332 -0.111565 21.3796 0.334749L22.8571 1.81234L24.3347 0.334749C24.7811 -0.111565 25.5047 -0.111565 25.951 0.334749L27.4286 1.81234L28.9062 0.334749C29.1659 0.0749834 29.5347 -0.0440742 29.8974 0.014771C30.26 0.0736162 30.5722 0.303189 30.7365 0.63177L31.8793 2.91748C31.9587 3.07618 32 3.25116 32 3.42859V30.8572C32 31.0346 31.9587 31.2096 31.8793 31.3683L30.7365 33.654C30.5722 33.9826 30.26 34.2121 29.8974 34.271C29.5347 34.3298 29.1659 34.2108 28.9062 33.951L27.4286 32.4734L25.951 33.951C25.5047 34.3973 24.7811 34.3973 24.3347 33.951L22.8571 32.4734L21.3796 33.951C20.9332 34.3973 20.2096 34.3973 19.7633 33.951L18.2857 32.4734L16.8081 33.951C16.3618 34.3973 15.6382 34.3973 15.1919 33.951L13.7143 32.4734L12.2367 33.951C11.7904 34.3973 11.0668 34.3973 10.6205 33.951L9.14286 32.4734L7.66527 33.951C7.21895 34.3973 6.49533 34.3973 6.04902 33.951L4.57143 32.4734L3.09384 33.951C2.83407 34.2108 2.46527 34.3298 2.10265 34.271C1.74003 34.2121 1.4278 33.9826 1.26351 33.654L0.120655 31.3683C0.0413087 31.2096 0 31.0346 0 30.8572V3.42859C0 3.25116 0.0413087 3.07618 0.120655 2.91748L1.26351 0.63177C1.4278 0.303189 1.74003 0.0736162 2.10265 0.014771ZM2.5988 3.0722L2.28571 3.69838V30.5874L2.5988 31.2135L3.76331 30.049C4.20962 29.6027 4.93324 29.6027 5.37955 30.049L6.85714 31.5266L8.33474 30.049C8.78105 29.6027 9.50467 29.6027 9.95098 30.049L11.4286 31.5266L12.9062 30.049C13.3525 29.6027 14.0761 29.6027 14.5224 30.049L16 31.5266L17.4776 30.049C17.9239 29.6027 18.6475 29.6027 19.0938 30.049L20.5714 31.5266L22.049 30.049C22.4953 29.6027 23.219 29.6027 23.6653 30.049L25.1429 31.5266L26.6204 30.049C27.0668 29.6027 27.7904 29.6027 28.2367 30.049L29.4012 31.2135L29.7143 30.5874V3.69838L29.4012 3.0722L28.2367 4.23671C27.7904 4.68302 27.0668 4.68302 26.6204 4.23671L25.1429 2.75912L23.6653 4.23671C23.219 4.68302 22.4953 4.68302 22.049 4.23671L20.5714 2.75912L19.0938 4.23671C18.6475 4.68302 17.9239 4.68302 17.4776 4.23671L16 2.75911L14.5224 4.23671C14.0761 4.68302 13.3525 4.68302 12.9062 4.23671L11.4286 2.75911L9.95098 4.23671C9.50467 4.68302 8.78105 4.68302 8.33474 4.23671L6.85714 2.75911L5.37955 4.23671C4.93324 4.68302 4.20962 4.68302 3.76331 4.23671L2.5988 3.0722Z" fill="white"/>
<path d="M4.57143 9.14287C4.57143 8.51169 5.0831 8.00001 5.71429 8.00001H19.4286C20.0598 8.00001 20.5714 8.51169 20.5714 9.14287C20.5714 9.77405 20.0598 10.2857 19.4286 10.2857H5.71429C5.0831 10.2857 4.57143 9.77405 4.57143 9.14287ZM4.57143 13.7143C4.57143 13.0831 5.0831 12.5714 5.71429 12.5714H19.4286C20.0598 12.5714 20.5714 13.0831 20.5714 13.7143C20.5714 14.3455 20.0598 14.8572 19.4286 14.8572H5.71429C5.0831 14.8572 4.57143 14.3455 4.57143 13.7143ZM4.57143 18.2857C4.57143 17.6545 5.0831 17.1429 5.71429 17.1429H19.4286C20.0598 17.1429 20.5714 17.6545 20.5714 18.2857C20.5714 18.9169 20.0598 19.4286 19.4286 19.4286H5.71429C5.0831 19.4286 4.57143 18.9169 4.57143 18.2857ZM4.57143 22.8572C4.57143 22.226 5.0831 21.7143 5.71429 21.7143H19.4286C20.0598 21.7143 20.5714 22.226 20.5714 22.8572C20.5714 23.4883 20.0598 24 19.4286 24H5.71429C5.0831 24 4.57143 23.4883 4.57143 22.8572Z" fill="white"/>
<path d="M22.8571 9.14287C22.8571 8.51169 23.3688 8.00001 24 8.00001H26.2857C26.9169 8.00001 27.4286 8.51169 27.4286 9.14287C27.4286 9.77405 26.9169 10.2857 26.2857 10.2857H24C23.3688 10.2857 22.8571 9.77405 22.8571 9.14287ZM22.8571 13.7143C22.8571 13.0831 23.3688 12.5714 24 12.5714H26.2857C26.9169 12.5714 27.4286 13.0831 27.4286 13.7143C27.4286 14.3455 26.9169 14.8572 26.2857 14.8572H24C23.3688 14.8572 22.8571 14.3455 22.8571 13.7143ZM22.8571 18.2857C22.8571 17.6545 23.3688 17.1429 24 17.1429H26.2857C26.9169 17.1429 27.4286 17.6545 27.4286 18.2857C27.4286 18.9169 26.9169 19.4286 26.2857 19.4286H24C23.3688 19.4286 22.8571 18.9169 22.8571 18.2857ZM22.8571 22.8572C22.8571 22.226 23.3688 21.7143 24 21.7143H26.2857C26.9169 21.7143 27.4286 22.226 27.4286 22.8572C27.4286 23.4883 26.9169 24 26.2857 24H24C23.3688 24 22.8571 23.4883 22.8571 22.8572Z" fill="white"/>
<path d="M48.0779 26.288C46.8779 26.288 45.7899 26.056 44.8139 25.592C43.8539 25.112 43.0859 24.384 42.5099 23.408C41.9499 22.432 41.6699 21.192 41.6699 19.688V9.2H44.2139V19.712C44.2139 21.184 44.5659 22.264 45.2699 22.952C45.9739 23.64 46.9259 23.984 48.1259 23.984C49.3099 23.984 50.2539 23.64 50.9579 22.952C51.6619 22.264 52.0139 21.184 52.0139 19.712V9.2H54.5579V19.688C54.5579 21.192 54.2619 22.432 53.6699 23.408C53.0939 24.384 52.3099 25.112 51.3179 25.592C50.3419 26.056 49.2619 26.288 48.0779 26.288ZM57.7252 26V14.096H59.9812L60.1732 16.184C60.5412 15.448 61.0772 14.872 61.7812 14.456C62.5012 14.024 63.3252 13.808 64.2532 13.808C65.6932 13.808 66.8212 14.256 67.6372 15.152C68.4692 16.048 68.8852 17.384 68.8852 19.16V26H66.3652V19.424C66.3652 17.12 65.4212 15.968 63.5332 15.968C62.5892 15.968 61.8052 16.304 61.1812 16.976C60.5732 17.648 60.2692 18.608 60.2692 19.856V26H57.7252ZM77.4494 26.288C76.2814 26.288 75.2414 26.032 74.3294 25.52C73.4334 24.992 72.7294 24.264 72.2174 23.336C71.7054 22.408 71.4494 21.328 71.4494 20.096C71.4494 18.848 71.6974 17.752 72.1934 16.808C72.7054 15.864 73.4094 15.128 74.3054 14.6C75.2174 14.072 76.2734 13.808 77.4734 13.808C78.6414 13.808 79.6574 14.072 80.5214 14.6C81.3854 15.112 82.0574 15.8 82.5374 16.664C83.0174 17.528 83.2574 18.48 83.2574 19.52C83.2574 19.68 83.2494 19.856 83.2334 20.048C83.2334 20.224 83.2254 20.424 83.2094 20.648H73.9454C74.0254 21.8 74.4014 22.68 75.0734 23.288C75.7614 23.88 76.5534 24.176 77.4494 24.176C78.1694 24.176 78.7694 24.016 79.2494 23.696C79.7454 23.36 80.1134 22.912 80.3534 22.352H82.8974C82.5774 23.472 81.9374 24.408 80.9774 25.16C80.0334 25.912 78.8574 26.288 77.4494 26.288ZM77.4494 15.896C76.6014 15.896 75.8494 16.152 75.1934 16.664C74.5374 17.16 74.1374 17.912 73.9934 18.92H80.7134C80.6654 17.992 80.3374 17.256 79.7294 16.712C79.1214 16.168 78.3614 15.896 77.4494 15.896ZM93.4811 26.288C91.8171 26.288 90.3771 25.928 89.1611 25.208C87.9611 24.472 87.0331 23.456 86.3771 22.16C85.7211 20.848 85.3931 19.336 85.3931 17.624C85.3931 15.896 85.7211 14.384 86.3771 13.088C87.0331 11.776 87.9611 10.752 89.1611 10.016C90.3771 9.28 91.8171 8.912 93.4811 8.912C95.4491 8.912 97.0571 9.392 98.3051 10.352C99.5531 11.312 100.345 12.656 100.681 14.384H97.8491C97.6251 13.408 97.1451 12.632 96.4091 12.056C95.6731 11.48 94.6891 11.192 93.4571 11.192C91.7771 11.192 90.4491 11.768 89.4731 12.92C88.4971 14.056 88.0091 15.624 88.0091 17.624C88.0091 19.608 88.4971 21.168 89.4731 22.304C90.4491 23.44 91.7771 24.008 93.4571 24.008C94.6891 24.008 95.6731 23.736 96.4091 23.192C97.1451 22.648 97.6251 21.904 97.8491 20.96H100.681C100.345 22.624 99.5531 23.928 98.3051 24.872C97.0571 25.816 95.4491 26.288 93.4811 26.288ZM108.949 26.288C107.813 26.288 106.789 26.032 105.877 25.52C104.981 24.992 104.269 24.264 103.741 23.336C103.213 22.392 102.949 21.296 102.949 20.048C102.949 18.8 103.213 17.712 103.741 16.784C104.285 15.84 105.013 15.112 105.925 14.6C106.837 14.072 107.853 13.808 108.973 13.808C110.109 13.808 111.125 14.072 112.021 14.6C112.933 15.112 113.653 15.84 114.181 16.784C114.725 17.712 114.997 18.8 114.997 20.048C114.997 21.296 114.725 22.392 114.181 23.336C113.653 24.264 112.933 24.992 112.021 25.52C111.109 26.032 110.085 26.288 108.949 26.288ZM108.949 24.104C109.557 24.104 110.117 23.952 110.629 23.648C111.157 23.344 111.581 22.896 111.901 22.304C112.221 21.696 112.381 20.944 112.381 20.048C112.381 19.152 112.221 18.408 111.901 17.816C111.597 17.208 111.181 16.752 110.653 16.448C110.141 16.144 109.581 15.992 108.973 15.992C108.365 15.992 107.797 16.144 107.269 16.448C106.757 16.752 106.341 17.208 106.021 17.816C105.701 18.408 105.541 19.152 105.541 20.048C105.541 20.944 105.701 21.696 106.021 22.304C106.341 22.896 106.757 23.344 107.269 23.648C107.781 23.952 108.341 24.104 108.949 24.104ZM117.749 26V14.096H120.005L120.197 16.184C120.565 15.448 121.101 14.872 121.805 14.456C122.525 14.024 123.349 13.808 124.277 13.808C125.717 13.808 126.845 14.256 127.661 15.152C128.493 16.048 128.909 17.384 128.909 19.16V26H126.389V19.424C126.389 17.12 125.445 15.968 123.557 15.968C122.613 15.968 121.829 16.304 121.205 16.976C120.597 17.648 120.293 18.608 120.293 19.856V26H117.749ZM136.897 26C135.729 26 134.801 25.72 134.113 25.16C133.425 24.584 133.081 23.568 133.081 22.112V16.232H131.041V14.096H133.081L133.393 11.072H135.625V14.096H138.985V16.232H135.625V22.112C135.625 22.768 135.761 23.224 136.033 23.48C136.321 23.72 136.809 23.84 137.497 23.84H138.865V26H136.897Z" fill="white"/>
</svg>
